<?xml version="1.0" encoding="UTF-8"?>
<svg id="Layer_1" data-name="Layer 1" xmlns="http://www.w3.org/2000/svg" viewBox="0 0 711.47 740.89">
  <defs>
    <style>
      .cls-1 {
        fill: none;
        stroke: #bcc6d9;
        stroke-miterlimit: 10;
        stroke-width: 10.96px;
      }

      .cls-2 {
        fill: #bcc6d9;
      }
    </style>
  </defs>
  <g>
    <path class="cls-2" d="M312.32,161.94c-42.49,0-77.42,27.48-84.39,66.63l-1.41,8.07-2.06,11.79-5.26,29.98c-4.66,26.94,9.88,44.74,41.91,49.83l28.52,4.59c22.7,3.55,26.76,12.2,21.52,41.7l-27.92,160.2c-4.08,24.41-13.39,34.07-32.6,34.07-22.7,0-36.09-14.74-32-37.11l15.26-90c.54-3.22-2.31-6.13-6.05-6.13h-30.73c-3.03,0-5.59,1.93-6.05,4.55l-12,69.19c-7.57,42.22,20.37,69.67,69.83,69.67s72.76-20.33,80.91-66.61l23.28-135.28v-.04c.79-4.68,1.04-9.06.73-13.12-1.27-18.09-13.24-30.29-36.13-36.13-2.25-.6-4.62-1.1-7.09-1.56l-10.12-1.79-24.22-4.32c-13.97-2.54-19.21-10.67-16.88-24.41l1.77-10.6,2-11.85,10.77-64.01c4.66-26.96,19.21-37.13,37.84-37.13,20.37,0,32,15.26,27.94,37.13l-9.94,54.34c-.6,3.24,2.27,6.19,6.03,6.19h30.68c3.01,0,5.57-1.93,6.03-4.53l5.03-28.54c7.57-44.24-19.21-74.76-65.18-74.76Z"/>
    <path class="cls-2" d="M527.57,167.72h-112.45c-3.01,0-5.57,1.92-6.03,4.53l-36.95,213.39-2.04,11.77-29.36,169.65c-.56,3.21,2.3,6.11,6.03,6.11h114.66c1.52,0,2.92-.48,3.99-1.31,1.08-.81,1.82-1.94,2.04-3.26.54-3.21-2.32-6.07-6.03-6.07h-69.99c-3.73,0-6.57-2.9-6.01-6.13l21.37-122.3,1.13-6.43c.25-1.52,1.25-2.8,2.63-3.61.98-.58,2.15-.9,3.38-.9h59.08c1.52,0,2.92-.48,3.99-1.31,1.08-.83,1.82-1.96,2.04-3.26.54-3.21-2.32-6.09-6.03-6.09h-55.49c-3.73,0-6.57-2.88-6.01-6.11l38.75-223.51c.44-2.59,3.01-4.53,6.03-4.53h71.26c1.52,0,2.92-.48,3.99-1.31,1.06-.81,1.82-1.94,2.04-3.25.52-3.21-2.32-6.09-6.03-6.09Z"/>
  </g>
  <path class="cls-2" d="M7.48,3.11l209.88,206.83c-.15.73-.29,1.48-.42,2.23l-1.83,10.51L0,10.61,7.48,3.11Z"/>
  <path class="cls-2" d="M706.43,740.89l-285.15-286.28c.15-.73.29-1.48.42-2.23l1.83-10.51,290.38,291.51-7.48,7.5Z"/>
  <rect class="cls-1" x="5.13" y="5.47" width="701.3" height="730.17"/>
</svg>