<?xml version="1.0" encoding="UTF-8"?>
<svg id="Layer_1" data-name="Layer 1" xmlns="http://www.w3.org/2000/svg" xmlns:xlink="http://www.w3.org/1999/xlink" viewBox="0 0 940.99 652.79">
  <defs>
    <style>
      .cls-1 {
        filter: url(#drop-shadow-1);
      }

      .cls-2 {
        fill: #353535;
      }

      .cls-2, .cls-3 {
        stroke: #353535;
        stroke-miterlimit: 10;
        stroke-width: 1.56px;
      }

      .cls-3 {
        fill: #bcc6d9;
      }
    </style>
    <filter id="drop-shadow-1" x="1.39" y="76.43" width="948.24" height="604.56" filterUnits="userSpaceOnUse">
      <feOffset dx="-1.86" dy="13.01"/>
      <feGaussianBlur result="blur" stdDeviation="9.29"/>
      <feFlood flood-color="#827c75" flood-opacity=".48"/>
      <feComposite in2="blur" operator="in"/>
      <feComposite in="SourceGraphic"/>
    </filter>
  </defs>
  <g class="cls-1">
    <rect class="cls-2" x="130.75" y="130.7" width="22.07" height="523.6" transform="translate(-138.31 83.14) rotate(-22.3)"/>
    <path class="cls-3" d="M48.47,171.9s114.77-55.56,236.47-58.92c142-3.91,251.11,32.07,335.16,29.17,63.15-2.18,247.83-49.57,247.83-49.57l-48.13,138.04,102.11,79s-107.43,53.96-209.54,65.69c-105.4,12.11-209.33-34.82-278.94-34.85-126.56-.06-294.37,55.7-294.37,55.7,0,0,14-52.06-12.06-122.28-21.15-57-78.54-101.99-78.54-101.99Z"/>
    <g>
      <path d="M260.06,195.56c-.37,3.36-.73,6.73-1.1,10.09-.1.92-.93,1.73-1.96,1.92-3.49.63-6.97,1.29-10.45,1.99-1.28.26-2.32-.55-2.19-1.7.74-6.45,1.47-12.9,2.21-19.35.82-6.47-3.25-12.44-10.31-10.74-7.44,1.79-11.32,8.52-12.05,15.83-1.02,10.33-2.05,20.66-3.07,31-.56,4.37,1.68,7.35,6.25,6.88,3.93-.29,7.86-.52,11.8-.7,9.46-.4,16.65,4.35,15.56,14.48-1.67,16.01-3.34,32.02-5.01,48.04-1.68,15.8-11.01,25.35-26.04,29.56-6.07,1.7-13.78,2.92-19.45-.69-5.27-3.36-6.38-10.03-5.67-15.82.85-8.39,1.71-16.77,2.56-25.16.1-.95.92-1.9,1.94-2.24,3.45-1.13,6.92-2.22,10.39-3.28,1.26-.38,2.29.33,2.18,1.49-1.08,10.82-2.15,21.65-3.22,32.47-1.07,7.62,4.6,11.54,11.64,9.57,6.99-1.96,9.68-7.77,10.32-14.61,2.01-19.09,4.02-38.18,6.04-57.26.82-7.19.47-13.43-8.22-12.62-3.26.26-6.52.56-9.78.9-9.23,1.03-16.36-2.92-15.27-13.02.63-6.01,1.25-12.01,1.88-18.02,1.42-14.45,13.23-27.14,27.19-30.34,14.64-3.36,25.39,6.53,23.82,21.33Z"/>
      <path d="M267.04,287.23c3.41-31.78,6.83-63.55,10.27-95.33,1.5-14.35,11.51-26.37,26.37-27.53,14.64-1.14,26.93,9.08,25.21,24.32-3.43,31.84-6.85,63.67-10.26,95.51-1.74,15.19-11.87,23.68-26.7,25.42-14.19,1.66-26.59-7.21-24.89-22.39ZM302.93,293.17c4.03-37.75,8.08-75.51,12.15-113.26.67-7.05-3.81-12.87-11.2-12.21-6.82.6-10.43,6.52-11.03,12.92-4.05,38.02-8.09,76.04-12.1,114.06-.8,7.15,3.65,12.43,10.97,11.63,7.04-.77,10.53-6.51,11.22-13.14Z"/>
      <path d="M337.53,281.69c4.22-38.63,8.46-77.25,12.72-115.88.1-.9.94-1.57,1.98-1.57,3.53,0,7.06,0,10.59.03,1.29.01,2.34,1.02,2.22,2.13-4.52,40.3-9.02,80.59-13.51,120.89-.94,8.01,2.05,15.12,10.98,15.11,8.3,0,10.58-7.69,11.53-14.6,4.51-40.48,9.04-80.95,13.57-121.42.1-.89.95-1.52,1.99-1.49,3.54.13,7.08.28,10.62.44,1.29.06,2.35,1.1,2.22,2.21-4.31,38.28-8.6,76.56-12.89,114.84-1.74,15.35-12.09,23.31-27.23,23.34-13.32.03-26.61-9.5-24.79-24.04Z"/>
      <path d="M425.23,170.52c-3.88-.24-7.76-.47-11.64-.68-1.28-.07-2.33-1.1-2.23-2.2,0-.07,0-.1.02-.17.09-.9.94-1.53,2-1.47,14.04.78,28.06,1.74,42.08,2.78,1.28.1,2.33,1.15,2.23,2.24,0,.07-.01.1-.02.17-.09.9-.94,1.51-2,1.43-3.75-.28-7.5-.55-11.25-.82-1.05-.07-1.89.53-1.99,1.41-4.97,43.76-9.94,87.52-14.89,131.28-.1.89-.95,1.5-1.99,1.44-3.54-.2-7.08-.39-10.62-.57-1.29-.06-2.35-1.11-2.22-2.21,4.91-43.46,9.83-86.92,14.75-130.39.12-1.1-.93-2.16-2.22-2.24Z"/>
      <path d="M494.99,255.42c-6.3-.49-12.61-.97-18.91-1.46-1.05-.08-1.9.52-2,1.4-1.94,17.3-3.89,34.6-5.83,51.91-.1.89-.95,1.48-2,1.4-3.55-.26-7.09-.52-10.64-.78-1.3-.09-2.35-1.16-2.23-2.26,5.06-44.77,10.14-89.54,15.21-134.31.1-.88.95-1.48,2-1.4,3.55.27,7.1.55,10.64.82,1.29.1,2.35,1.17,2.23,2.27-2.8,24.98-5.61,49.96-8.41,74.95-.12,1.09.93,2.17,2.23,2.27,6.3.49,12.61.97,18.91,1.46,1.05.08,1.9-.52,2-1.4,2.84-25.35,5.69-50.7,8.53-76.05.1-.89.95-1.48,2-1.41,3.54.26,7.09.51,10.64.76,1.29.09,2.35,1.16,2.23,2.25-5.06,44.78-10.13,89.56-15.21,134.34-.1.88-.95,1.48-2,1.4-3.55-.27-7.09-.54-10.64-.82-1.3-.1-2.35-1.17-2.23-2.27,1.9-16.94,3.81-33.88,5.71-50.82.12-1.09-.93-2.17-2.23-2.27Z"/>
      <path d="M543.77,175.17c13,.74,26,1.33,39.01,1.69,1.28.03,2.33,1.05,2.22,2.15h0c-.09.9-.94,1.55-1.99,1.52-8.24-.23-16.48-.54-24.72-.93-1.05-.05-1.89.57-1.99,1.46-2.87,25.43-5.74,50.87-8.62,76.3-.12,1.1.93,2.16,2.22,2.23,6.42.36,12.84.69,19.26.98,1.29.06,2.34,1.09,2.22,2.18h0c-.09.9-.94,1.53-1.99,1.49-6.84-.31-13.68-.66-20.51-1.05-1.04-.06-1.89.55-1.99,1.43-1.68,14.63-3.35,29.26-5.03,43.89-.13,1.1.93,2.16,2.22,2.24,8.1.5,16.2.95,24.3,1.34,1.29.06,2.34,1.09,2.22,2.19h0c-.09.9-.94,1.53-1.99,1.48-13.28-.63-26.56-1.45-39.82-2.37-1.29-.09-2.35-1.16-2.23-2.26,5.07-44.84,10.14-89.68,15.19-134.52.1-.89.95-1.5,1.99-1.44Z"/>
      <path d="M623.65,175.24c13.4-.37,25.94,8.54,24.32,23.01-4.27,38.95-8.55,77.9-12.86,116.85-.1.9-.94,1.59-1.98,1.61-3.53.08-7.05.14-10.58.18-1.29.01-2.34-.98-2.21-2.09,1.77-15.86,3.54-31.72,5.3-47.59.12-1.11-.92-2.09-2.21-2.08-6.14.08-12.27.1-18.41.06-1.04,0-1.89.64-1.99,1.54-1.81,16.15-3.63,32.3-5.44,48.46-.1.89-.95,1.54-1.99,1.51-3.54-.08-7.07-.18-10.61-.29-1.29-.04-2.34-1.08-2.22-2.18,4.35-38.72,8.68-77.45,13.01-116.17,1.59-14.91,13.79-22.43,27.87-22.82ZM624.43,261.27c1.04-.02,1.88-.7,1.98-1.6,2.38-21.48,4.75-42.95,7.12-64.43.79-7.63-1.11-16.7-10.47-16.5-8.86.19-11.09,8.43-12.05,15.89-2.4,21.53-4.81,43.06-7.21,64.59-.12,1.11.93,2.12,2.22,2.13,6.14.03,12.27,0,18.41-.09Z"/>
      <path d="M655.25,291.79c.37-3.3.74-6.6,1.11-9.91.1-.9.94-1.62,1.98-1.69,3.51-.24,7.02-.51,10.52-.8,1.29-.11,2.34.81,2.2,1.94-.74,6.32-1.49,12.64-2.23,18.96-1,6.67,3.33,12.6,10.38,11.87,7.59-.78,11.43-7.11,12.15-14.23,1.04-10.12,2.07-20.23,3.11-30.35.54-4.4-1.78-7.46-6.3-7.63-3.97-.21-7.93-.46-11.89-.76-9.42-.73-16.78-6.02-15.67-16.18,1.69-15.71,3.38-31.41,5.07-47.12,1.69-15.45,11.17-23.92,26.26-26.11,13.93-2.02,27.14,3.91,25.33,19.84-.87,8.19-1.73,16.38-2.6,24.57-.1.93-.93,1.75-1.96,1.94-3.49.64-6.98,1.24-10.48,1.81-1.27.2-2.31-.64-2.2-1.78,1.09-10.58,2.18-21.17,3.27-31.75.91-7.4-4.52-12.15-11.73-11.05-6.95,1.06-9.85,6.56-10.41,13.17-2.03,18.7-4.07,37.39-6.11,56.08-.86,7.33-.31,13.25,8.27,13.52,3.28.14,6.57.26,9.86.34,9.22.18,16.49,4.97,15.39,14.95-.63,5.87-1.27,11.74-1.9,17.61-1.56,13.99-13.53,25.3-27.43,26.63-14.74,1.42-25.6-8.99-23.98-23.88Z"/>
      <path d="M739.23,166c-3.79.98-7.6,1.91-11.42,2.78-1.26.29-2.29-.48-2.19-1.62,0-.07,0-.11.02-.18.08-.94.92-1.81,1.96-2.05,13.92-3.23,27.64-7.12,41.17-11.72,1.25-.43,2.27.21,2.17,1.37,0,.07,0,.11-.02.18-.08.96-.91,1.94-1.94,2.3-3.65,1.24-7.3,2.44-10.97,3.6-1.02.32-1.85,1.25-1.95,2.19-4.76,46.34-9.57,92.67-14.41,139-.1.93-.93,1.81-1.95,2.05-3.47.81-6.95,1.59-10.44,2.34-1.27.27-2.31-.53-2.19-1.68,4.81-45.66,9.6-91.32,14.34-136.98.12-1.16-.91-1.9-2.18-1.57Z"/>
    </g>
  </g>
</svg>