<?xml version="1.0" encoding="UTF-8"?>
<svg id="Layer_1" data-name="Layer 1" xmlns="http://www.w3.org/2000/svg" xmlns:xlink="http://www.w3.org/1999/xlink" viewBox="0 0 940.99 652.79">
  <defs>
    <style>
      .cls-1 {
        filter: url(#drop-shadow-2);
      }

      .cls-2 {
        stroke: #bcc6d9;
      }

      .cls-2, .cls-3 {
        fill: #353535;
        stroke-miterlimit: 10;
        stroke-width: 1.58px;
      }

      .cls-3 {
        stroke: #353535;
      }

      .cls-4 {
        fill: #bcc6d9;
      }
    </style>
    <filter id="drop-shadow-2" x="-7.3" y="65.05" width="964.8" height="615.12" filterUnits="userSpaceOnUse">
      <feOffset dx="-1.89" dy="13.24"/>
      <feGaussianBlur result="blur" stdDeviation="9.46"/>
      <feFlood flood-color="#827c75" flood-opacity=".48"/>
      <feComposite in2="blur" operator="in"/>
      <feComposite in="SourceGraphic"/>
    </filter>
  </defs>
  <g class="cls-1">
    <rect class="cls-3" x="124.39" y="120.29" width="22.46" height="532.69" transform="translate(-136.55 80.36) rotate(-22.3)"/>
    <path class="cls-2" d="M40.69,162.21s116.76-56.53,240.58-59.94c144.46-3.98,255.47,32.63,340.98,29.68,64.24-2.21,252.14-50.43,252.14-50.43l-48.97,140.44,103.88,80.38s-109.3,54.89-213.18,66.83c-107.23,12.32-212.96-35.42-283.78-35.46-128.76-.06-299.49,56.67-299.49,56.67,0,0,14.24-52.96-12.27-124.4-21.52-57.99-79.9-103.77-79.9-103.77Z"/>
    <g>
      <path class="cls-4" d="M255.95,186.27c-.37,3.42-.74,6.85-1.12,10.27-.1.94-.95,1.76-2,1.95-3.55.64-7.09,1.32-10.63,2.02-1.3.26-2.36-.55-2.23-1.73.75-6.56,1.5-13.13,2.25-19.69.83-6.59-3.31-12.66-10.49-10.93-7.6,1.83-11.51,8.65-12.26,16.11-1.04,10.51-2.08,21.02-3.12,31.53-.54,4.43,1.73,7.44,6.36,7,4-.3,8-.53,12-.71,9.63-.41,16.94,4.43,15.83,14.74-1.7,16.29-3.4,32.58-5.1,48.87-1.71,16.07-11.2,25.79-26.49,30.08-6.14,1.72-14.06,2.99-19.8-.69-5.38-3.45-6.41-10.22-5.76-16.11.87-8.53,1.74-17.07,2.61-25.6.1-.96.94-1.94,1.98-2.28,3.51-1.15,7.04-2.26,10.57-3.33,1.28-.39,2.33.34,2.22,1.52-1.09,11.01-2.19,22.02-3.28,33.03-1.09,7.76,4.68,11.74,11.84,9.74,7.12-1.99,9.85-7.91,10.5-14.87,2.04-19.42,4.09-38.84,6.14-58.26.83-7.32.48-13.66-8.36-12.84-3.32.26-6.64.57-9.95.92-9.39,1.05-16.65-2.97-15.53-13.25.64-6.11,1.27-12.22,1.91-18.33,1.58-14.71,13.26-27.65,27.67-30.87,14.95-3.35,25.84,6.52,24.23,21.71Z"/>
      <path class="cls-4" d="M263.05,279.54c3.47-32.33,6.95-64.66,10.44-96.98,1.52-14.6,11.72-26.83,26.83-28.01,14.9-1.16,27.4,9.24,25.65,24.74-3.49,32.39-6.97,64.78-10.43,97.17-1.77,15.46-12.07,24.1-27.16,25.86-14.57,1.7-26.87-7.36-25.32-22.78ZM299.57,285.58c4.1-38.41,8.22-76.82,12.36-115.23.68-7.17-3.88-13.09-11.4-12.42-6.95.62-10.6,6.63-11.22,13.14-4.12,38.68-8.23,77.36-12.31,116.04-.81,7.27,3.71,12.65,11.16,11.84,7.17-.78,10.71-6.62,11.41-13.36Z"/>
      <path class="cls-4" d="M334.77,273.91c4.3-39.3,8.61-78.59,12.94-117.89.1-.91.96-1.59,2.02-1.6,3.59,0,7.18,0,10.77.03,1.31.01,2.38,1.04,2.26,2.17-4.6,41-9.18,81.99-13.75,122.99-.95,8.15,2.08,15.39,11.17,15.38,8.33-.01,10.96-7.77,11.73-14.86,4.59-41.18,9.19-82.36,13.81-123.53.1-.91.96-1.55,2.02-1.51,3.6.14,7.2.28,10.8.44,1.32.06,2.39,1.12,2.26,2.24-4.38,38.94-8.75,77.89-13.11,116.84-1.77,15.62-12.3,23.72-27.71,23.75-13.55.03-27.07-9.67-25.22-24.46Z"/>
      <path class="cls-4" d="M423.99,160.81c-3.94-.24-7.89-.48-11.84-.69-1.3-.07-2.37-1.12-2.26-2.23,0-.07,0-.11.02-.18.09-.92.95-1.56,2.03-1.5,14.28.8,28.55,1.77,42.81,2.83,1.31.1,2.37,1.17,2.27,2.28,0,.07-.01.11-.02.18-.09.91-.96,1.53-2.03,1.46-3.82-.28-7.63-.56-11.45-.83-1.06-.08-1.93.54-2.03,1.44-5.06,44.52-10.11,89.04-15.15,133.56-.1.9-.96,1.52-2.03,1.46-3.6-.2-7.21-.4-10.81-.58-1.32-.07-2.39-1.13-2.26-2.25,4.99-44.22,10-88.43,15.01-132.65.13-1.12-.95-2.2-2.26-2.28Z"/>
      <path class="cls-4" d="M494.96,247.18c-6.41-.49-12.83-.99-19.24-1.48-1.07-.08-1.93.52-2.03,1.42-1.98,17.6-3.96,35.21-5.93,52.81-.1.9-.96,1.51-2.03,1.43-3.61-.27-7.21-.53-10.82-.79-1.32-.09-2.39-1.18-2.26-2.3,5.15-45.55,10.31-91.1,15.47-136.65.1-.9.97-1.51,2.03-1.42,3.61.28,7.22.56,10.83.83,1.32.1,2.39,1.19,2.27,2.31-2.85,25.42-5.71,50.83-8.56,76.25-.13,1.11.95,2.21,2.26,2.31,6.41.49,12.83.99,19.24,1.48,1.07.08,1.93-.52,2.03-1.43,2.89-25.79,5.79-51.58,8.68-77.37.1-.9.96-1.51,2.03-1.43,3.61.26,7.21.52,10.82.78,1.32.09,2.39,1.18,2.26,2.29-5.15,45.56-10.31,91.12-15.47,136.67-.1.9-.96,1.51-2.03,1.43-3.61-.28-7.22-.55-10.83-.83-1.32-.1-2.39-1.2-2.27-2.31,1.94-17.23,3.87-34.47,5.81-51.7.13-1.11-.95-2.21-2.26-2.31Z"/>
      <path class="cls-4" d="M544.59,165.53c13.22.76,26.45,1.36,39.69,1.72,1.31.03,2.37,1.06,2.26,2.18h0c-.09.92-.96,1.58-2.03,1.55-8.39-.23-16.77-.55-25.15-.95-1.06-.05-1.92.58-2.03,1.48-2.92,25.88-5.84,51.75-8.77,77.63-.13,1.12.95,2.19,2.26,2.27,6.53.37,13.06.7,19.6,1,1.31.06,2.38,1.1,2.26,2.22h0c-.09.91-.96,1.56-2.03,1.51-6.96-.31-13.91-.67-20.87-1.07-1.06-.06-1.92.56-2.03,1.46-1.7,14.88-3.41,29.77-5.12,44.65-.13,1.12.94,2.2,2.26,2.28,8.24.51,16.48.97,24.72,1.36,1.31.06,2.38,1.11,2.26,2.23h0c-.09.91-.96,1.55-2.03,1.5-13.51-.65-27.02-1.48-40.52-2.41-1.32-.09-2.39-1.18-2.26-2.29,5.16-45.62,10.31-91.24,15.46-136.86.1-.9.96-1.52,2.03-1.46Z"/>
      <path class="cls-4" d="M625.85,165.6c13.63-.38,26.39,8.69,24.75,23.41-4.34,39.63-8.7,79.26-13.08,118.88-.1.92-.96,1.62-2.02,1.64-3.59.08-7.17.14-10.76.18-1.31.01-2.38-1-2.25-2.13,1.8-16.14,3.6-32.28,5.4-48.41.13-1.13-.94-2.13-2.25-2.11-6.24.08-12.49.1-18.73.06-1.06,0-1.92.66-2.02,1.57-1.84,16.43-3.69,32.87-5.54,49.3-.1.91-.96,1.56-2.02,1.54-3.6-.08-7.2-.18-10.79-.3-1.31-.04-2.38-1.09-2.26-2.22,4.42-39.39,8.83-78.79,13.23-118.19,1.76-15.15,13.92-22.82,28.35-23.22ZM626.65,253.13c1.06-.02,1.92-.71,2.02-1.62,2.42-21.85,4.83-43.7,7.24-65.55.81-7.76-1.13-16.99-10.65-16.78-9.12.2-11.14,8.59-12.26,16.17-2.44,21.9-4.89,43.81-7.34,65.71-.13,1.13.94,2.15,2.26,2.16,6.24.03,12.49,0,18.73-.09Z"/>
      <path class="cls-4" d="M658.01,284.18c.38-3.36.75-6.72,1.13-10.08.1-.92.96-1.65,2.01-1.72,3.57-.25,7.14-.52,10.71-.82,1.31-.11,2.38.82,2.24,1.98-.76,6.43-1.51,12.86-2.27,19.29-1,6.79,3.38,12.81,10.56,12.07,7.72-.79,11.62-7.23,12.36-14.47,1.06-10.29,2.11-20.59,3.16-30.88.55-4.48-1.81-7.59-6.41-7.76-4.03-.22-8.07-.48-12.1-.77-9.62-.66-16.98-6.22-15.94-16.46,1.72-15.98,3.44-31.96,5.16-47.94.74-6.75,2.78-13.68,7.74-18.57,5.03-4.96,12.17-7.01,18.97-7.99,14.18-2.06,27.61,3.98,25.77,20.18-.88,8.33-1.76,16.66-2.65,24.99-.1.94-.95,1.78-2,1.98-3.55.65-7.1,1.26-10.67,1.84-1.3.21-2.35-.65-2.23-1.81,1.11-10.77,2.22-21.54,3.32-32.31.92-7.52-4.6-12.36-11.94-11.24-7.07,1.08-10.02,6.67-10.59,13.4-2.07,19.02-4.14,38.04-6.22,57.06-.88,7.46-.32,13.48,8.42,13.76,3.34.15,6.68.27,10.03.35,9.38.18,16.78,5.05,15.66,15.21-.65,5.97-1.29,11.94-1.94,17.91-1.59,14.24-13.76,25.73-27.9,27.1-15,1.45-26.04-9.15-24.39-24.3Z"/>
      <path class="cls-4" d="M743.44,156.2c-3.86,1-7.73,1.94-11.62,2.83-1.28.29-2.33-.49-2.23-1.65,0-.07,0-.11.02-.18.08-.96.94-1.85,1.99-2.09,14.16-3.28,28.12-7.24,41.89-11.93,1.27-.44,2.31.22,2.21,1.4,0,.07,0,.11-.02.19-.08.97-.93,1.97-1.98,2.34-3.7,1.27-7.42,2.5-11.16,3.66-1.04.32-1.88,1.27-1.98,2.23-4.85,47.14-9.73,94.28-14.66,141.42-.1.95-.94,1.84-1.99,2.09-3.53.83-7.07,1.62-10.62,2.38-1.29.27-2.35-.54-2.23-1.71,4.9-46.45,9.76-92.9,14.59-139.36.12-1.18-.93-1.93-2.22-1.6Z"/>
    </g>
  </g>
</svg>