<?xml version="1.0" encoding="UTF-8"?>
<svg id="Layer_1" data-name="Layer 1" xmlns="http://www.w3.org/2000/svg" xmlns:xlink="http://www.w3.org/1999/xlink" viewBox="0 0 940.99 652.79">
  <defs>
    <style>
      .cls-1 {
        filter: url(#drop-shadow-3);
      }

      .cls-2 {
        fill: #cbcbcb;
        stroke: #353535;
        stroke-miterlimit: 10;
        stroke-width: 1.19px;
      }

      .cls-3 {
        fill: #353535;
      }
    </style>
    <filter id="drop-shadow-3" x="-11.38" y="54.14" width="949.2" height="605.04" filterUnits="userSpaceOnUse">
      <feOffset dx="-1.86" dy="13.03"/>
      <feGaussianBlur result="blur" stdDeviation="9.31"/>
      <feFlood flood-color="#827c75" flood-opacity=".48"/>
      <feComposite in2="blur" operator="in"/>
      <feComposite in="SourceGraphic"/>
    </filter>
  </defs>
  <g class="cls-1">
    <rect class="cls-2" x="117.96" y="108.25" width="22.11" height="524.44" transform="translate(-130.91 76.64) rotate(-22.3)"/>
    <path class="cls-2" d="M35.55,149.52s114.95-55.65,236.85-59.01c142.23-3.92,251.51,32.12,335.7,29.22,63.25-2.18,248.23-49.65,248.23-49.65l-48.21,138.26,102.28,79.13s-107.61,54.04-209.88,65.79c-105.57,12.13-209.67-34.87-279.39-34.91-126.77-.06-294.85,55.79-294.85,55.79,0,0,14.02-52.14-12.08-122.47-21.18-57.09-78.66-102.16-78.66-102.16Z"/>
    <g>
      <path class="cls-3" d="M247.48,173.21c-.37,3.37-.73,6.74-1.1,10.11-.1.92-.93,1.74-1.96,1.92-3.5.63-6.98,1.29-10.47,1.99-1.28.26-2.32-.55-2.19-1.7.74-6.46,1.47-12.92,2.21-19.38.82-6.49-3.26-12.46-10.33-10.76-7.46,1.8-11.34,8.53-12.07,15.86-1.03,10.35-2.05,20.7-3.08,31.05-.56,4.37,1.68,7.36,6.26,6.89,3.94-.29,7.88-.52,11.82-.7,9.48-.4,16.68,4.36,15.59,14.51-1.68,16.04-3.35,32.08-5.02,48.11-1.69,15.82-11.03,25.39-26.08,29.61-6.08,1.71-13.8,2.93-19.48-.69-5.28-3.36-6.39-10.05-5.68-15.85.85-8.4,1.71-16.8,2.57-25.2.1-.95.92-1.91,1.95-2.24,3.46-1.13,6.93-2.23,10.41-3.28,1.27-.38,2.3.33,2.18,1.5-1.08,10.84-2.15,21.68-3.23,32.52-1.08,7.63,4.61,11.56,11.66,9.58,7-1.96,9.7-7.79,10.34-14.64,2.01-19.12,4.02-38.24,6.05-57.36.82-7.21.47-13.45-8.23-12.64-3.27.26-6.53.56-9.79.9-9.24,1.03-16.39-2.93-15.29-13.05.63-6.02,1.25-12.03,1.88-18.05,1.42-14.47,13.26-27.18,27.24-30.39,14.67-3.37,25.43,6.54,23.86,21.37Z"/>
      <path class="cls-3" d="M254.47,265.03c3.41-31.83,6.84-63.65,10.28-95.48,1.5-14.37,11.53-26.42,26.41-27.58,14.66-1.14,26.98,9.09,25.25,24.35-3.44,31.89-6.86,63.77-10.27,95.66-1.74,15.22-11.89,23.72-26.74,25.46-14.21,1.66-26.63-7.23-24.93-22.43ZM290.42,270.98c4.04-37.82,8.1-75.63,12.17-113.44.67-7.06-3.81-12.89-11.22-12.23-6.85.61-10.43,6.53-11.05,12.94-4.06,38.08-8.1,76.16-12.12,114.24-.8,7.16,3.66,12.45,10.98,11.65,7.05-.77,10.55-6.52,11.23-13.16Z"/>
      <path class="cls-3" d="M325.07,259.48c4.23-38.69,8.48-77.38,12.74-116.06.1-.9.94-1.57,1.99-1.57,3.54,0,7.07,0,10.61.03,1.29.01,2.35,1.02,2.22,2.13-4.53,40.36-9.04,80.72-13.53,121.09-.94,8.02,2.05,15.15,11,15.14,8.31,0,10.6-7.7,11.54-14.63,4.52-40.54,9.05-81.08,13.6-121.62.1-.89.95-1.53,1.99-1.49,3.55.13,7.09.28,10.63.44,1.3.06,2.35,1.11,2.23,2.21-4.31,38.34-8.62,76.68-12.91,115.03-1.74,15.38-12.11,23.35-27.28,23.38-13.34.03-26.65-9.52-24.83-24.08Z"/>
      <path class="cls-3" d="M412.91,148.14c-3.88-.24-7.77-.47-11.65-.68-1.28-.07-2.33-1.11-2.23-2.2,0-.07,0-.1.02-.17.09-.9.94-1.53,2-1.47,14.06.79,28.11,1.75,42.15,2.78,1.29.1,2.34,1.15,2.23,2.24,0,.07,0,.1-.02.17-.09.9-.94,1.51-2,1.43-3.76-.28-7.51-.55-11.27-.82-1.05-.07-1.9.53-2,1.41-4.98,43.83-9.95,87.66-14.92,131.49-.1.89-.95,1.5-2,1.44-3.55-.2-7.09-.39-10.64-.57-1.3-.06-2.35-1.11-2.23-2.22,4.92-43.53,9.84-87.07,14.78-130.6.12-1.1-.93-2.16-2.23-2.24Z"/>
      <path class="cls-3" d="M482.78,233.17c-6.31-.49-12.63-.98-18.94-1.46-1.05-.08-1.9.52-2,1.4-1.95,17.33-3.9,34.66-5.84,51.99-.1.89-.95,1.48-2,1.41-3.55-.26-7.1-.52-10.65-.78-1.3-.09-2.35-1.16-2.23-2.26,5.07-44.84,10.15-89.69,15.23-134.53.1-.89.95-1.48,2-1.4,3.55.27,7.11.55,10.66.82,1.3.1,2.35,1.18,2.23,2.27-2.81,25.02-5.62,50.05-8.43,75.07-.12,1.1.93,2.17,2.23,2.27,6.31.49,12.63.98,18.94,1.46,1.05.08,1.9-.52,2-1.4,2.85-25.39,5.7-50.78,8.54-76.17.1-.89.95-1.49,2-1.41,3.55.26,7.1.52,10.65.77,1.3.09,2.35,1.16,2.23,2.26-5.07,44.85-10.15,89.71-15.23,134.56-.1.89-.95,1.48-2,1.4-3.55-.27-7.11-.54-10.66-.82-1.3-.1-2.35-1.18-2.23-2.27,1.91-16.97,3.81-33.93,5.72-50.9.12-1.1-.93-2.17-2.23-2.27Z"/>
      <path class="cls-3" d="M531.65,152.79c13.02.74,26.04,1.33,39.08,1.7,1.29.03,2.34,1.05,2.22,2.15h0c-.09.9-.94,1.55-1.99,1.52-8.26-.23-16.51-.55-24.76-.94-1.05-.05-1.89.57-2,1.46-2.87,25.48-5.75,50.95-8.63,76.43-.12,1.1.93,2.16,2.23,2.23,6.43.36,12.86.69,19.3.98,1.29.06,2.34,1.09,2.23,2.19h0c-.09.9-.94,1.53-2,1.49-6.85-.31-13.7-.66-20.55-1.05-1.05-.06-1.89.55-2,1.44-1.68,14.65-3.36,29.31-5.04,43.96-.13,1.1.93,2.17,2.23,2.25,8.11.5,16.22.96,24.34,1.34,1.29.06,2.34,1.09,2.23,2.19h0c-.09.9-.94,1.53-2,1.48-13.31-.64-26.6-1.46-39.89-2.38-1.3-.09-2.35-1.16-2.23-2.26,5.08-44.91,10.15-89.83,15.22-134.74.1-.89.95-1.5,2-1.44Z"/>
      <path class="cls-3" d="M611.65,152.86c13.42-.37,25.98,8.56,24.36,23.05-4.27,39.02-8.57,78.03-12.88,117.04-.1.9-.94,1.59-1.99,1.61-3.53.08-7.06.14-10.59.18-1.29.01-2.34-.98-2.22-2.1,1.77-15.89,3.54-31.78,5.31-47.66.12-1.12-.93-2.1-2.22-2.08-6.15.08-12.29.1-18.44.06-1.04,0-1.89.65-1.99,1.54-1.81,16.18-3.63,32.36-5.45,48.53-.1.89-.95,1.54-1.99,1.52-3.54-.08-7.08-.18-10.63-.29-1.29-.04-2.35-1.08-2.22-2.18,4.35-38.78,8.7-77.57,13.03-116.36,1.59-14.94,13.81-22.47,27.91-22.86ZM612.44,239.03c1.04-.02,1.89-.7,1.99-1.6,2.38-21.51,4.76-43.02,7.13-64.53.8-7.64-1.11-16.73-10.49-16.52-8.88.19-11.11,8.45-12.07,15.92-2.4,21.57-4.81,43.13-7.23,64.69-.12,1.11.93,2.12,2.22,2.13,6.15.03,12.29,0,18.44-.09Z"/>
      <path class="cls-3" d="M643.31,269.6c.37-3.31.74-6.61,1.11-9.92.1-.91.94-1.62,1.98-1.69,3.52-.24,7.03-.51,10.54-.8,1.29-.11,2.34.81,2.21,1.94-.74,6.33-1.49,12.66-2.24,18.99-1,6.68,3.34,12.62,10.4,11.89,7.6-.79,11.44-7.12,12.17-14.25,1.04-10.13,2.08-20.27,3.12-30.4.54-4.41-1.79-7.47-6.31-7.64-3.97-.21-7.94-.46-11.91-.76-9.43-.73-16.81-6.03-15.69-16.21,1.69-15.73,3.39-31.46,5.08-47.2.73-6.65,2.74-13.47,7.62-18.28,4.95-4.88,11.98-6.9,18.68-7.87,13.96-2.03,27.18,3.92,25.37,19.87-.87,8.2-1.74,16.4-2.6,24.6-.1.93-.93,1.76-1.96,1.95-3.5.64-6.99,1.24-10.5,1.81-1.28.21-2.32-.64-2.2-1.78,1.09-10.6,2.18-21.2,3.27-31.81.91-7.41-4.53-12.17-11.75-11.07-6.96,1.06-9.86,6.57-10.43,13.19-2.03,18.73-4.07,37.45-6.12,56.18-.86,7.35-.32,13.27,8.29,13.54,3.29.14,6.58.26,9.87.34,9.23.18,16.52,4.97,15.41,14.97-.64,5.88-1.27,11.76-1.91,17.64-1.56,14.02-13.55,25.34-27.47,26.68-14.77,1.42-25.64-9-24.02-23.92Z"/>
      <path class="cls-3" d="M727.42,143.6c-3.8.98-7.61,1.91-11.44,2.78-1.26.29-2.29-.48-2.19-1.62,0-.07,0-.11.02-.18.08-.94.92-1.82,1.96-2.05,13.94-3.23,27.69-7.13,41.24-11.74,1.25-.43,2.28.21,2.18,1.37,0,.07,0,.11-.02.18-.08.96-.91,1.94-1.95,2.3-3.65,1.24-7.31,2.44-10.99,3.6-1.02.32-1.85,1.25-1.95,2.19-4.77,46.41-9.58,92.82-14.43,139.23-.1.94-.93,1.81-1.96,2.05-3.48.81-6.96,1.59-10.46,2.34-1.27.27-2.31-.53-2.19-1.68,4.82-45.73,9.61-91.46,14.36-137.2.12-1.16-.91-1.9-2.19-1.58Z"/>
    </g>
  </g>
</svg>