<?xml version="1.0" encoding="UTF-8"?>
<svg id="Layer_1" data-name="Layer 1" xmlns="http://www.w3.org/2000/svg" viewBox="0 0 1578.91 650.54">
  <defs>
    <style>
      .cls-1 {
        fill: #e8e7e6;
      }
    </style>
  </defs>
  <g>
    <path class="cls-1" d="M605.29,561.55c0,3.46,0,6.54-.25,10.62-.86,13.21-8.76,23.58-25.92,23.58-15.18,0-24.32-9.26-24.81-25.68l-.12-4.57h7.65l.25,4.57c.62,13.7,7.41,19.51,18.02,19.51s16.42-6.79,17.41-17.9c.12-2.59.12-5.68.12-9.88v-52.96h7.65v52.71Z"/>
    <path class="cls-1" d="M624.93,594.02v-85.18h7.65v85.18h-7.65Z"/>
    <path class="cls-1" d="M713.81,563.53c0,2.47-.12,4.94-.37,7.9-.99,13.83-10.49,24.32-29.87,24.32s-28.89-10.49-30-24.32c-.25-2.96-.25-5.43-.25-7.9v-54.69h7.65v54.32c0,2.72,0,5.19.25,7.53.99,10.74,8.02,18.89,22.34,18.89s21.23-8.15,22.22-18.89c.25-2.35.37-4.82.37-7.53v-54.32h7.65v54.69Z"/>
    <path class="cls-1" d="M726.16,561.8v-5.31h25.92v5.31h-25.92Z"/>
    <path class="cls-1" d="M813.56,561.55c0,3.46,0,6.54-.25,10.62-.86,13.21-8.76,23.58-25.92,23.58-15.18,0-24.32-9.26-24.81-25.68l-.12-4.57h7.65l.25,4.57c.62,13.7,7.41,19.51,18.02,19.51s16.42-6.79,17.41-17.9c.12-2.59.12-5.68.12-9.88v-52.96h7.65v52.71Z"/>
    <path class="cls-1" d="M833.2,594.02v-85.18h7.65v85.18h-7.65Z"/>
    <path class="cls-1" d="M893.07,515.13v78.88h-7.65v-78.88h-31.23v-6.3h70.12v6.3h-31.23Z"/>
    <path class="cls-1" d="M989.12,531.68h-8.02c-1.48-11.6-8.89-18.39-20.12-18.39-9.75,0-18.76,5.06-18.76,15.18s6.05,14.2,20.62,17.9c18.27,4.69,27.41,11.6,27.41,25.68s-12.34,23.7-28.64,23.7c-17.28,0-29.75-8.76-31.6-25.18h8.15c2.1,12.22,11.48,19.01,23.7,19.01,11.23,0,20.25-6.42,20.25-16.3,0-10.99-6.42-15.68-22.34-19.63-16.17-4.2-25.8-9.88-25.8-23.58s12.59-22.96,27.65-22.96c17.04,0,25.92,10.74,27.53,24.57Z"/>
    <path class="cls-1" d="M1067.27,563.53c0,2.47-.12,4.94-.37,7.9-.99,13.83-10.49,24.32-29.87,24.32s-28.89-10.49-30-24.32c-.25-2.96-.25-5.43-.25-7.9v-54.69h7.65v54.32c0,2.72,0,5.19.25,7.53.99,10.74,8.02,18.89,22.34,18.89s21.23-8.15,22.22-18.89c.25-2.35.37-4.82.37-7.53v-54.32h7.65v54.69Z"/>
  </g>
  <g>
    <path class="cls-1" d="M241.42,126.72l-4.39,24.94c-.4,2.28-2.64,3.96-5.28,3.96h-26.8c-3.29,0-5.79-2.57-5.27-5.4l8.68-47.5c3.56-19.12-6.61-32.45-24.42-32.45-16.28,0-29,8.89-33.07,32.45l-12.72,75.57c-2.03,12,2.54,19.12,14.75,21.34l30.02,5.34c29,5.33,41.21,20.45,37.14,44.45l-20.35,118.25c-7.12,40.45-28.49,58.24-70.72,58.24-43.24,0-67.66-24.01-61.05-60.9l10.5-60.49c.4-2.28,2.64-3.97,5.28-3.97h26.86c3.26,0,5.76,2.53,5.28,5.35l-13.34,78.67c-3.56,19.56,8.14,32.45,27.98,32.45,16.79,0,24.93-8.45,28.49-29.78l24.42-140.03c4.58-25.78,1.02-33.34-18.82-36.45l-24.93-4c-27.98-4.44-40.7-20-36.63-43.57l7.63-43.57c6.1-34.23,36.63-58.24,73.77-58.24,40.19,0,63.59,26.67,56.98,65.35Z"/>
    <path class="cls-1" d="M244.5,360.56l41.21-236.5c6.61-38.68,34.09-62.68,71.23-62.68,41.21,0,66.65,27.56,60.03,65.35l-41.21,240.95c-7.12,39.57-30.53,58.24-71.73,58.24s-65.63-28.45-59.53-65.35ZM334.55,387.23l48.84-284.51c3.05-20.01-7.12-32.9-26.46-32.9-16.28,0-26.45,10.22-30.02,30.23l-48.84,284.51c-3.05,20.01,6.61,32.9,25.95,32.9,17.3,0,26.96-9.78,30.52-30.23Z"/>
    <path class="cls-1" d="M424.08,363.67l50.7-293.88c.39-2.28,2.64-3.97,5.28-3.97h26.84c3.27,0,5.77,2.54,5.28,5.37l-53.5,307.59c-4.58,26.23,5.09,38.68,25.44,38.68,17.3,0,26.96-11.11,31.54-37.34l53.75-310.33c.4-2.28,2.64-3.97,5.28-3.97h26.84c3.27,0,5.77,2.54,5.28,5.37l-50.96,294.26c-7.12,40.45-30.53,60.46-72.75,60.46-38.16,0-65.12-27.12-59.02-62.24Z"/>
    <path class="cls-1" d="M664.1,75.6h-29.39c-3.24,0-5.73-2.5-5.29-5.3l.07-.44c.36-2.31,2.62-4.04,5.29-4.04h106.23c3.24,0,5.73,2.5,5.29,5.3l-.07.44c-.36,2.31-2.62,4.04-5.29,4.04h-28.39c-2.64,0-4.89,1.69-5.28,3.97l-58.66,337.92c-.4,2.28-2.64,3.97-5.28,3.97h-26.84c-3.27,0-5.77-2.54-5.28-5.37l58.17-335.12c.49-2.82-2.01-5.37-5.28-5.37Z"/>
    <path class="cls-1" d="M827.42,279.65h-47.7c-2.64,0-4.89,1.69-5.28,3.97l-23.05,133.87c-.39,2.28-2.64,3.97-5.28,3.97h-26.84c-3.27,0-5.77-2.54-5.28-5.37l59.94-346.3c.4-2.28,2.64-3.97,5.28-3.97h26.85c3.27,0,5.77,2.54,5.28,5.36l-33.26,193.33c-.49,2.82,2.02,5.36,5.28,5.36h47.7c2.64,0,4.89-1.69,5.28-3.97l33.74-196.1c.39-2.28,2.64-3.97,5.28-3.97h26.84c3.27,0,5.77,2.54,5.28,5.37l-59.94,346.3c-.4,2.28-2.64,3.97-5.28,3.97h-26.85c-3.27,0-5.77-2.54-5.28-5.36l22.57-131.09c.49-2.82-2.02-5.36-5.28-5.36Z"/>
    <path class="cls-1" d="M963.87,65.82h98.63c3.25,0,5.75,2.52,5.29,5.33h0c-.38,2.3-2.63,4.01-5.29,4.01h-62.51c-2.64,0-4.89,1.69-5.28,3.97l-33.99,196.05c-.49,2.82,2.01,5.37,5.28,5.37h48.68c3.25,0,5.75,2.52,5.29,5.33h0c-.38,2.3-2.63,4.01-5.29,4.01h-51.83c-2.64,0-4.88,1.68-5.28,3.96l-19.74,112.92c-.49,2.83,2.01,5.37,5.28,5.37h61.39c3.25,0,5.75,2.52,5.29,5.33h0c-.38,2.3-2.63,4.01-5.29,4.01h-100.57c-3.27,0-5.77-2.54-5.28-5.37l59.94-346.3c.4-2.28,2.64-3.97,5.28-3.97Z"/>
    <path class="cls-1" d="M1166.33,61.37c38.67,0,64.1,25.78,58,60.9l-51.2,295.21c-.4,2.28-2.64,3.97-5.28,3.97h-26.84c-3.27,0-5.77-2.54-5.28-5.37l21.03-120.85c.49-2.82-2.01-5.37-5.28-5.37h-46.68c-2.64,0-4.88,1.69-5.28,3.97l-21.51,123.65c-.4,2.28-2.64,3.97-5.28,3.97h-26.85c-3.27,0-5.77-2.54-5.28-5.37l51.47-296.93c6.61-36.9,33.07-57.79,74.28-57.79ZM1154.62,280.09c2.64,0,4.89-1.69,5.28-3.97l28.31-163.18c4.58-28.01-4.07-42.68-23.91-42.68s-27.47,11.11-33.07,40.01l-28.58,164.45c-.49,2.82,2.01,5.37,5.28,5.37h46.68Z"/>
    <path class="cls-1" d="M1227.89,360.56l4.39-24.94c.4-2.28,2.64-3.96,5.28-3.96h26.8c3.29,0,5.79,2.57,5.27,5.4l-8.68,47.5c-3.56,19.12,6.61,32.45,24.42,32.45,16.28,0,29-8.89,33.07-32.45l12.72-75.57c2.04-12-2.54-19.12-14.75-21.34l-30.02-5.34c-29-5.33-41.21-20.45-37.14-44.45l20.35-118.25c7.12-40.45,28.49-58.24,70.72-58.24s67.66,24.01,61.05,60.9l-10.5,60.49c-.4,2.28-2.64,3.97-5.28,3.97h-26.86c-3.26,0-5.76-2.53-5.28-5.35l13.34-78.67c3.56-19.56-8.14-32.45-27.98-32.45-16.79,0-24.93,8.45-28.49,29.78l-24.42,140.03c-4.58,25.78-1.02,33.34,18.82,36.45l24.93,4c27.98,4.44,40.7,20,36.63,43.57l-7.63,43.57c-6.1,34.23-36.63,58.24-73.77,58.24-40.19,0-63.59-26.67-56.98-65.35Z"/>
    <path class="cls-1" d="M1460.8,75.6h-29.39c-3.24,0-5.73-2.5-5.29-5.3l.07-.44c.36-2.31,2.62-4.04,5.29-4.04h106.23c3.24,0,5.73,2.5,5.29,5.3l-.07.44c-.36,2.31-2.62,4.04-5.29,4.04h-28.39c-2.64,0-4.89,1.69-5.28,3.97l-58.66,337.92c-.4,2.28-2.64,3.97-5.28,3.97h-26.84c-3.27,0-5.77-2.54-5.28-5.37l58.17-335.12c.49-2.82-2.01-5.37-5.28-5.37Z"/>
  </g>
</svg>