<?xml version="1.0" encoding="UTF-8"?>
<svg id="Layer_1" data-name="Layer 1" xmlns="http://www.w3.org/2000/svg" viewBox="0 0 1503.83 575.21">
  <defs>
    <style>
      .cls-1 {
        fill: #bcc6d9;
      }

      .cls-2 {
        fill: none;
        stroke: #353535;
        stroke-miterlimit: 10;
        stroke-width: 4px;
      }

      .cls-3 {
        fill: #353535;
      }
    </style>
  </defs>
  <rect class="cls-1" x=".45" y="1.18" width="1502.93" height="572.85"/>
  <line class="cls-2" x1=".45" y1="1.18" x2="1503.38" y2="574.03"/>
  <rect class="cls-1" x="267.79" y="92.81" width="997.94" height="378.71"/>
  <g>
    <path class="cls-3" d="M652.69,456.38c0,2.22,0,4.2-.16,6.82-.55,8.48-5.63,15.14-16.65,15.14-9.75,0-15.62-5.94-15.93-16.49l-.08-2.93h4.91l.16,2.93c.4,8.8,4.76,12.52,11.57,12.52s10.54-4.36,11.18-11.49c.08-1.66.08-3.65.08-6.34v-34.01h4.91v33.85Z"/>
    <path class="cls-3" d="M665.29,477.23v-54.7h4.91v54.7h-4.91Z"/>
    <path class="cls-3" d="M722.37,457.65c0,1.58-.08,3.17-.24,5.07-.63,8.88-6.74,15.62-19.18,15.62s-18.55-6.74-19.26-15.62c-.16-1.9-.16-3.49-.16-5.07v-35.12h4.91v34.88c0,1.74,0,3.33.16,4.84.63,6.9,5.15,12.13,14.35,12.13s13.63-5.23,14.27-12.13c.16-1.51.24-3.09.24-4.84v-34.88h4.91v35.12Z"/>
    <path class="cls-3" d="M730.3,456.54v-3.41h16.65v3.41h-16.65Z"/>
    <path class="cls-3" d="M786.42,456.38c0,2.22,0,4.2-.16,6.82-.55,8.48-5.63,15.14-16.65,15.14-9.75,0-15.62-5.94-15.93-16.49l-.08-2.93h4.91l.16,2.93c.4,8.8,4.76,12.52,11.57,12.52s10.54-4.36,11.18-11.49c.08-1.66.08-3.65.08-6.34v-34.01h4.91v33.85Z"/>
    <path class="cls-3" d="M799.03,477.23v-54.7h4.91v54.7h-4.91Z"/>
    <path class="cls-3" d="M837.48,426.58v50.65h-4.91v-50.65h-20.06v-4.04h45.03v4.04h-20.06Z"/>
    <path class="cls-3" d="M899.15,437.2h-5.15c-.95-7.45-5.71-11.81-12.92-11.81-6.26,0-12.05,3.25-12.05,9.75s3.88,9.12,13.24,11.49c11.73,3.01,17.6,7.45,17.6,16.49s-7.93,15.22-18.39,15.22c-11.1,0-19.1-5.63-20.29-16.17h5.23c1.35,7.85,7.37,12.21,15.22,12.21,7.21,0,13-4.12,13-10.46,0-7.06-4.12-10.07-14.35-12.6-10.38-2.7-16.57-6.34-16.57-15.14s8.09-14.74,17.76-14.74c10.94,0,16.65,6.9,17.68,15.78Z"/>
    <path class="cls-3" d="M949.33,457.65c0,1.58-.08,3.17-.24,5.07-.63,8.88-6.74,15.62-19.18,15.62s-18.55-6.74-19.26-15.62c-.16-1.9-.16-3.49-.16-5.07v-35.12h4.91v34.88c0,1.74,0,3.33.16,4.84.63,6.9,5.15,12.13,14.35,12.13s13.63-5.23,14.27-12.13c.16-1.51.24-3.09.24-4.84v-34.88h4.91v35.12Z"/>
  </g>
  <g>
    <path class="cls-3" d="M419.03,177.17l-2.82,16.01c-.26,1.46-1.7,2.54-3.39,2.54h-17.21c-2.11,0-3.72-1.65-3.39-3.47l5.57-30.5c2.29-12.27-4.25-20.84-15.68-20.84-10.45,0-18.62,5.71-21.23,20.84l-8.17,48.53c-1.31,7.71,1.63,12.27,9.47,13.7l19.27,3.43c18.62,3.43,26.46,13.13,23.85,28.55l-13.07,75.93c-4.57,25.98-18.29,37.4-45.41,37.4-27.77,0-43.45-15.41-39.2-39.11l6.75-38.84c.25-1.46,1.7-2.55,3.39-2.55h17.25c2.09,0,3.7,1.63,3.39,3.44l-8.56,50.51c-2.29,12.56,5.23,20.84,17.97,20.84,10.78,0,16.01-5.42,18.29-19.13l15.68-89.92c2.94-16.56.65-21.41-12.09-23.41l-16.01-2.57c-17.97-2.85-26.13-12.85-23.52-27.97l4.9-27.97c3.92-21.98,23.52-37.4,47.37-37.4,25.81,0,40.84,17.13,36.59,41.96Z"/>
    <path class="cls-3" d="M421.02,327.32l26.46-151.86c4.25-24.84,21.89-40.25,45.74-40.25,26.46,0,42.8,17.7,38.55,41.96l-26.46,154.72c-4.57,25.41-19.6,37.4-46.06,37.4s-42.14-18.27-38.22-41.96ZM478.84,344.45l31.36-182.69c1.96-12.85-4.57-21.12-16.99-21.12-10.45,0-16.99,6.57-19.27,19.41l-31.36,182.69c-1.96,12.85,4.25,21.12,16.66,21.12,11.11,0,17.31-6.28,19.6-19.41Z"/>
    <path class="cls-3" d="M536.33,329.32l32.55-188.71c.25-1.47,1.69-2.55,3.39-2.55h17.23c2.1,0,3.71,1.63,3.39,3.45l-34.36,197.51c-2.94,16.84,3.27,24.83,16.33,24.83,11.11,0,17.31-7.14,20.26-23.98l34.51-199.27c.25-1.47,1.7-2.55,3.39-2.55h17.24c2.1,0,3.71,1.63,3.39,3.45l-32.72,188.95c-4.57,25.98-19.6,38.82-46.72,38.82-24.5,0-41.82-17.41-37.9-39.96Z"/>
    <path class="cls-3" d="M690.45,144.34h-18.87c-2.08,0-3.68-1.6-3.4-3.4l.04-.29c.23-1.48,1.68-2.59,3.4-2.59h68.21c2.08,0,3.68,1.6,3.4,3.4l-.04.29c-.23,1.48-1.68,2.59-3.4,2.59h-18.23c-1.7,0-3.14,1.08-3.39,2.55l-37.66,216.99c-.25,1.46-1.7,2.55-3.39,2.55h-17.24c-2.1,0-3.71-1.63-3.39-3.45l37.35-215.19c.31-1.81-1.29-3.45-3.39-3.45Z"/>
    <path class="cls-3" d="M795.32,275.37h-30.63c-1.7,0-3.14,1.08-3.39,2.55l-14.8,85.96c-.25,1.47-1.69,2.55-3.39,2.55h-17.23c-2.1,0-3.71-1.63-3.39-3.45l38.49-222.37c.25-1.47,1.7-2.55,3.39-2.55h17.24c2.1,0,3.7,1.63,3.39,3.44l-21.36,124.14c-.31,1.81,1.29,3.44,3.39,3.44h30.63c1.7,0,3.14-1.08,3.39-2.55l21.66-125.92c.25-1.47,1.69-2.55,3.39-2.55h17.23c2.1,0,3.71,1.63,3.39,3.45l-38.49,222.37c-.25,1.47-1.7,2.55-3.39,2.55h-17.24c-2.1,0-3.7-1.63-3.39-3.44l14.5-84.17c.31-1.81-1.29-3.44-3.39-3.44Z"/>
    <path class="cls-3" d="M882.94,138.06h63.33c2.09,0,3.69,1.62,3.4,3.42h0c-.24,1.48-1.69,2.57-3.4,2.57h-40.14c-1.7,0-3.14,1.08-3.39,2.55l-21.83,125.89c-.31,1.81,1.29,3.45,3.39,3.45h31.26c2.09,0,3.69,1.62,3.4,3.42h0c-.24,1.48-1.69,2.57-3.4,2.57h-33.28c-1.69,0-3.13,1.08-3.39,2.54l-12.67,72.51c-.32,1.81,1.29,3.45,3.39,3.45h39.42c2.09,0,3.69,1.62,3.4,3.42h0c-.24,1.48-1.69,2.57-3.4,2.57h-64.58c-2.1,0-3.71-1.63-3.39-3.45l38.49-222.37c.25-1.47,1.7-2.55,3.39-2.55Z"/>
    <path class="cls-3" d="M1012.95,135.21c24.83,0,41.16,16.56,37.24,39.11l-32.88,189.56c-.25,1.47-1.7,2.55-3.39,2.55h-17.23c-2.1,0-3.71-1.63-3.39-3.45l13.5-77.6c.32-1.81-1.29-3.45-3.39-3.45h-29.98c-1.7,0-3.14,1.08-3.39,2.55l-13.82,79.4c-.25,1.46-1.7,2.55-3.39,2.55h-17.24c-2.1,0-3.71-1.63-3.39-3.45l33.05-190.66c4.25-23.69,21.23-37.11,47.7-37.11ZM1005.42,275.65c1.7,0,3.14-1.08,3.39-2.55l18.18-104.78c2.94-17.98-2.61-27.4-15.35-27.4s-17.64,7.14-21.23,25.69l-18.35,105.6c-.32,1.81,1.29,3.45,3.39,3.45h29.98Z"/>
    <path class="cls-3" d="M1052.47,327.32l2.82-16.01c.26-1.46,1.7-2.54,3.39-2.54h17.21c2.11,0,3.72,1.65,3.39,3.47l-5.57,30.5c-2.29,12.27,4.25,20.84,15.68,20.84,10.45,0,18.62-5.71,21.23-20.84l8.17-48.53c1.31-7.71-1.63-12.27-9.47-13.7l-19.27-3.43c-18.62-3.43-26.46-13.13-23.85-28.55l13.07-75.93c4.57-25.98,18.29-37.4,45.41-37.4s43.45,15.41,39.2,39.11l-6.74,38.84c-.25,1.46-1.7,2.55-3.39,2.55h-17.25c-2.09,0-3.7-1.63-3.39-3.44l8.56-50.51c2.29-12.56-5.23-20.84-17.97-20.84-10.78,0-16.01,5.42-18.29,19.13l-15.68,89.92c-2.94,16.56-.65,21.41,12.09,23.41l16.01,2.57c17.97,2.85,26.13,12.85,23.52,27.97l-4.9,27.97c-3.92,21.98-23.52,37.4-47.37,37.4-25.81,0-40.84-17.13-36.59-41.96Z"/>
    <path class="cls-3" d="M1202.03,144.34h-18.87c-2.08,0-3.68-1.6-3.4-3.4l.04-.29c.23-1.48,1.68-2.59,3.4-2.59h68.21c2.08,0,3.68,1.6,3.4,3.4l-.04.29c-.23,1.48-1.68,2.59-3.4,2.59h-18.23c-1.7,0-3.14,1.08-3.39,2.55l-37.66,216.99c-.25,1.46-1.7,2.55-3.39,2.55h-17.24c-2.1,0-3.71-1.63-3.39-3.45l37.35-215.19c.31-1.81-1.29-3.45-3.39-3.45Z"/>
  </g>
</svg>